<svg fill="#ffffff" xmlns="http://www.w3.org/2000/svg" viewBox="-285 408.89 24 24"><path d="M-275.12 419.88l1.03 3.09 3.21-1.07-1.03-3.09-3.21 1.07"/><path d="M-266.18 422.94l-1.55.52.54 1.61c.22.65-.13 1.36-.78 1.57-.14.05-.29.07-.43.06-.51-.01-.98-.34-1.15-.85l-.54-1.61-3.21 1.07.54 1.61c.22.65-.13 1.36-.78 1.57-.14.05-.29.07-.43.06-.51-.01-.98-.34-1.15-.85l-.54-1.61-1.56.52c-.14.05-.29.07-.43.06-.51-.01-.98-.34-1.15-.85-.22-.65.13-1.36.78-1.57l1.56-.52-1.03-3.09-1.55.52c-.14.05-.29.07-.43.06-.51-.01-.98-.34-1.15-.85-.22-.65.13-1.36.78-1.57l1.55-.52-.54-1.61c-.22-.65.13-1.36.78-1.57.65-.22 1.36.13 1.57.78l.54 1.61 3.21-1.07-.54-1.61c-.22-.65.13-1.36.78-1.57.65-.22 1.36.13 1.57.78l.54 1.61 1.55-.52c.65-.22 1.36.13 1.57.78.22.65-.13 1.36-.78 1.57l-1.55.52 1.03 3.09 1.56-.52c.65-.22 1.36.13 1.57.78.26.69-.09 1.4-.75 1.61zm4.18-5.35c-2.47-8.25-6.05-10.17-14.29-7.7s-10.17 6.05-7.7 14.29 6.05 10.17 14.29 7.7 10.17-6.04 7.7-14.29z"/></svg>